<?xml version="1.0" encoding="UTF-8"?>
<svg xmlns="http://www.w3.org/2000/svg" version="1.1" viewBox="0 0 1122 1093">
  <defs>
    <style>
      .cls-1 {
        stroke-opacity: .8;
      }

      .cls-1, .cls-2 {
        fill: none;
        stroke: #fff;
        stroke-dasharray: 2 3;
      }

      .cls-2 {
        stroke-opacity: .5;
      }

      .cls-3 {
        fill: #2d2f61;
        opacity: .4;
      }

      .cls-4 {
        fill: #fff;
      }

      .cls-5 {
        opacity: .3;
      }

      .cls-6 {
        opacity: .3;
      }

      .cls-7 {
        opacity: .2;
      }
    </style>
  </defs>
  <!-- Generator: Adobe Illustrator 28.6.0, SVG Export Plug-In . SVG Version: 1.2.0 Build 709)  -->
  <g>
    <g id="Layer_1">
      <path class="cls-3" d="M111,147.9S319.4-34.9,553,5.9c233.6,40.8,705.9,647.4,530.9,901.3s-382.5,189-567.4,141.8S-80.8,758.8,13.9,581.9,78.5,293.3,80.1,242.5s31-94.6,31-94.6Z"/>
      <g>
        <g class="cls-5">
          <circle class="cls-4" cx="1405.8" cy="-1132.9" r="9.9"/>
        </g>
        <g class="cls-5">
          <circle class="cls-4" cx="125.9" cy="1044.8" r="9.9"/>
        </g>
        <g class="cls-5">
          <circle class="cls-4" cx="1063.5" cy="841.4" r="9.9"/>
        </g>
        <g class="cls-5">
          <circle class="cls-4" cx="-201.5" cy="2160.9" r="9.9"/>
        </g>
        <g class="cls-5">
          <circle class="cls-4" cx="-72.5" cy="548.7" r="9.9"/>
        </g>
        <g class="cls-5">
          <circle class="cls-4" cx="76.3" cy="2334.6" r="9.9"/>
        </g>
        <g class="cls-5">
          <circle class="cls-4" cx="-141.9" cy="52.7" r="9.9"/>
        </g>
        <g class="cls-5">
          <circle class="cls-4" cx="1450.4" cy="2309.8" r="9.9"/>
        </g>
        <g class="cls-5">
          <circle class="cls-4" cx="-107.2" cy="-999" r="9.9"/>
        </g>
        <g class="cls-5">
          <circle class="cls-4" cx="865.1" cy="484.3" r="9.9"/>
        </g>
        <g class="cls-5">
          <circle class="cls-4" cx="374" cy="1769.1" r="9.9"/>
        </g>
        <g class="cls-5">
          <circle class="cls-4" cx="845.2" cy="2354.4" r="9.9"/>
        </g>
        <g class="cls-5">
          <circle class="cls-4" cx="1043.7" cy="1669.8" r="9.9"/>
        </g>
        <g class="cls-5">
          <circle class="cls-4" cx="364.1" cy="52.7" r="9.9"/>
        </g>
        <g class="cls-5">
          <circle class="cls-4" cx="1385.9" cy="1530.9" r="9.9"/>
        </g>
        <g class="cls-7">
          <path class="cls-2" d="M884.8-485.8c221.8,0,221.8,2661.8-1149.7,2661.8"/>
        </g>
        <g class="cls-6">
          <path class="cls-1" d="M1425.9,494.8c155.8,0,155.8,1869.5-671.5,1869.5"/>
        </g>
        <g class="cls-7">
          <path class="cls-1" d="M348.6-1142.8c186,0,186,2231.8-294.7,2231.8"/>
        </g>
      </g>
    </g>
  </g>
</svg>