<?xml version="1.0" encoding="UTF-8"?>
<svg xmlns="http://www.w3.org/2000/svg" version="1.1" viewBox="0 0 1920 1772.9">
  <defs>
    <style>
      .cls-1 {
        stroke-opacity: .8;
      }

      .cls-1, .cls-2 {
        fill: none;
        stroke: #fff;
        stroke-dasharray: 2 3;
      }

      .cls-2 {
        stroke-opacity: .5;
      }

      .cls-3 {
        fill: #2d2f61;
        opacity: .4;
      }

      .cls-4 {
        fill: #fff;
      }

      .cls-5 {
        opacity: .3;
      }

      .cls-6 {
        opacity: .3;
      }

      .cls-7 {
        opacity: .2;
      }
    </style>
  </defs>
  <!-- Generator: Adobe Illustrator 28.6.0, SVG Export Plug-In . SVG Version: 1.2.0 Build 709)  -->
  <g>
    <g id="Layer_1">
      <path class="cls-3" d="M2390.6,1677.7c-253.4,55.5-355.6,119.7-507,85.7s-278.5-76.4-324.6-245.4-250.1-147.5-318.6-451c-38.4-170.3,145.8-335,254.4-485.6,84.9-117.8,121.3-295.4,302.5-387.5,412.8-209.9,610.1-82,610.1-82l658.6,818.4s-422.1,692.1-675.4,747.5Z"/>
      <path class="cls-3" d="M-115.4,743.4c114.2,47.6,156.7,86.5,230.6,83.4,73.9-3.1,137.1-12.1,173-87.6s129.8-48,187.6-184.7c32.4-76.7-40.1-169.7-78.3-249.7-29.9-62.5-31.9-149.1-109.1-207.7C112.6-36.6,9.2,6.6,9.2,6.6l-378.2,328.2s139.5,360.9,253.6,408.5Z"/>
      <g>
        <g class="cls-5">
          <circle class="cls-4" cx="978.5" cy="-1216.1" r="9.9"/>
        </g>
        <g class="cls-5">
          <circle class="cls-4" cx="-301.4" cy="961.6" r="9.9"/>
        </g>
        <g class="cls-5">
          <circle class="cls-4" cx="636.2" cy="758.2" r="9.9"/>
        </g>
        <g class="cls-5">
          <circle class="cls-4" cx="-628.8" cy="2077.7" r="9.9"/>
        </g>
        <g class="cls-5">
          <circle class="cls-4" cx="-499.8" cy="465.6" r="9.9"/>
        </g>
        <g class="cls-5">
          <circle class="cls-4" cx="-351" cy="2251.4" r="9.9"/>
        </g>
        <g class="cls-5">
          <circle class="cls-4" cx="-569.2" cy="-30.5" r="9.9"/>
        </g>
        <g class="cls-5">
          <circle class="cls-4" cx="1023.1" cy="2226.6" r="9.9"/>
        </g>
        <g class="cls-5">
          <circle class="cls-4" cx="-534.5" cy="-1082.2" r="9.9"/>
        </g>
        <g class="cls-5">
          <circle class="cls-4" cx="437.8" cy="401.1" r="9.9"/>
        </g>
        <g class="cls-5">
          <circle class="cls-4" cx="-53.3" cy="1685.9" r="9.9"/>
        </g>
        <g class="cls-5">
          <circle class="cls-4" cx="417.9" cy="2271.2" r="9.9"/>
        </g>
        <g class="cls-5">
          <circle class="cls-4" cx="616.4" cy="1586.6" r="9.9"/>
        </g>
        <g class="cls-5">
          <circle class="cls-4" cx="-63.2" cy="-30.5" r="9.9"/>
        </g>
        <g class="cls-5">
          <circle class="cls-4" cx="958.6" cy="1447.8" r="9.9"/>
        </g>
        <g class="cls-7">
          <path class="cls-2" d="M457.5-569c221.8,0,221.8,2661.8-1149.7,2661.8"/>
        </g>
        <g class="cls-6">
          <path class="cls-1" d="M998.6,411.6c155.8,0,155.8,1869.5-671.5,1869.5"/>
        </g>
        <g class="cls-7">
          <path class="cls-1" d="M-78.7-1226c186,0,186,2231.8-294.7,2231.8"/>
        </g>
      </g>
      <g>
        <g class="cls-5">
          <circle class="cls-4" cx="2980.9" cy="-638.4" r="9.9"/>
        </g>
        <g class="cls-5">
          <circle class="cls-4" cx="1701" cy="1539.3" r="9.9"/>
        </g>
        <g class="cls-5">
          <circle class="cls-4" cx="2638.6" cy="1335.9" r="9.9"/>
        </g>
        <g class="cls-5">
          <circle class="cls-4" cx="1373.6" cy="2655.5" r="9.9"/>
        </g>
        <g class="cls-5">
          <circle class="cls-4" cx="1502.6" cy="1043.3" r="9.9"/>
        </g>
        <g class="cls-5">
          <circle class="cls-4" cx="1651.4" cy="2829.1" r="9.9"/>
        </g>
        <g class="cls-5">
          <circle class="cls-4" cx="1433.1" cy="547.2" r="9.9"/>
        </g>
        <g class="cls-5">
          <circle class="cls-4" cx="3025.5" cy="2804.3" r="9.9"/>
        </g>
        <g class="cls-5">
          <circle class="cls-4" cx="1467.9" cy="-504.5" r="9.9"/>
        </g>
        <g class="cls-5">
          <circle class="cls-4" cx="2440.1" cy="978.8" r="9.9"/>
        </g>
        <g class="cls-5">
          <circle class="cls-4" cx="1949" cy="2263.6" r="9.9"/>
        </g>
        <g class="cls-5">
          <circle class="cls-4" cx="2420.3" cy="2848.9" r="9.9"/>
        </g>
        <g class="cls-5">
          <circle class="cls-4" cx="2618.7" cy="2164.4" r="9.9"/>
        </g>
        <g class="cls-5">
          <circle class="cls-4" cx="1939.1" cy="547.2" r="9.9"/>
        </g>
        <g class="cls-5">
          <circle class="cls-4" cx="2961" cy="2025.5" r="9.9"/>
        </g>
        <g class="cls-7">
          <path class="cls-2" d="M2459.9,8.7c221.8,0,221.8,2661.8-1149.7,2661.8"/>
        </g>
        <g class="cls-6">
          <path class="cls-1" d="M3001,989.3c155.8,0,155.8,1869.5-671.5,1869.5"/>
        </g>
        <g class="cls-7">
          <path class="cls-1" d="M1923.7-648.3c186,0,186,2231.8-294.7,2231.8"/>
        </g>
      </g>
    </g>
  </g>
</svg>