<?xml version="1.0" encoding="UTF-8"?>
<svg xmlns="http://www.w3.org/2000/svg" version="1.1" viewBox="0 0 88.8 84.7">
  <defs>
    <style>
      .cls-1 {
        fill: #2e305e;
      }
    </style>
  </defs>
  <!-- Generator: Adobe Illustrator 28.6.0, SVG Export Plug-In . SVG Version: 1.2.0 Build 709)  -->
  <g>
    <g id="Layer_1">
      <path class="cls-1" d="M65.2,75.1c.5.2,1.1.2,1.7.2.9,0,1.8-.2,2.7-.7,1.3-.7,2.3-1.9,2.8-3.4.9-3-.8-6.2-3.8-7.1-3-.9-6.2.8-7.1,3.8-.4,1.5-.3,3,.4,4.3.7,1.3,1.9,2.3,3.4,2.8ZM63.3,68.6c.5-1.6,1.9-2.6,3.5-2.6s.7,0,1.1.2c1.9.6,3,2.6,2.4,4.6-.3.9-.9,1.7-1.8,2.2s-1.9.6-2.8.3c-1.9-.6-3-2.6-2.4-4.6Z"/>
      <path class="cls-1" d="M69.1,51.1l6.3,1.9c0,0,.2,0,.3,0,.4,0,.8-.3,1-.7.2-.5-.1-1.1-.7-1.2l-6.3-1.9c-.5-.2-1.1.1-1.2.7-.2.5.1,1.1.7,1.2Z"/>
      <path class="cls-1" d="M65.5,54.8l10.8,3.3c0,0,.2,0,.3,0,.4,0,.8-.3,1-.7.2-.5-.1-1.1-.7-1.2l-10.8-3.3c-.5-.2-1.1.1-1.2.7-.2.5.1,1.1.7,1.2Z"/>
      <path class="cls-1" d="M73.3,59.8l-6.3-1.9c-.5-.2-1.1.1-1.2.7-.2.5.1,1.1.7,1.2l6.3,1.9c0,0,.2,0,.3,0,.4,0,.8-.3,1-.7.2-.5-.1-1.1-.7-1.2Z"/>
      <path class="cls-1" d="M7.6,38.3c-.6.3-1,.8-1.3,1.4-.4.7-.4,1.6-.1,2.3l3.6,10.1c-2.8,2.8-4.3,6.6-4.3,10.5,0,8.3,6.7,15,15,15s11.6-3.7,13.9-9.4c2-5.6,6.7-8.9,12.5-8.9s6.5,1.3,9,3.6l-3,9.9c-.3,1.1-.2,2.2.3,3.2.5,1,1.4,1.7,2.5,2l16,4.8c.4.1.8.2,1.2.2.7,0,1.4-.2,2-.5,1-.5,1.7-1.4,2-2.5l8.4-27.8c.3-1.1.2-2.2-.3-3.2s-1.4-1.7-2.5-2l-16-4.8c-1.1-.3-2.2-.2-3.2.3-1,.5-1.7,1.4-2,2.5l-4.8,15.8c-2.7-2.3-6.1-3.5-9.6-3.5-6.6,0-12,3.9-14.3,10.2-2,4.9-6.7,8.1-12.1,8.1s-13-5.8-13-13,1.1-6.1,3.1-8.4c.5,1.1,1.6,1.7,2.7,1.7s.7,0,1-.2l2.3-.8v.2c.3.8.9,1.4,1.6,1.7.4.2.9.3,1.3.3s.7,0,1-.2l4.6-1.7h0c.8-.3,1.4-.8,1.7-1.6.4-.7.4-1.6.1-2.3l-6.4-18c-.3-.8-.8-1.4-1.6-1.7-.7-.3-1.6-.4-2.3-.1l-4.6,1.7c-.8.3-1.4.8-1.7,1.6-.3.7-.4,1.6-.1,2.3v.2c0,0-.8.3-.8.3-.7-2.5-1.5-5.8-1.8-7.3C5.7,18.8,13.9,7.7,26,5.5c12.1-2.1,23.6,5.5,25.6,17,.3,1.6.7,4.9.8,7.5h-.9s0-.2,0-.2c0-.8-.3-1.6-.9-2.2-.6-.6-1.3-.9-2.1-.9h-4.9c-1.7,0-3,1.4-3,3.1v19.1c.1.8.5,1.6,1,2.2.6.6,1.3.9,2.1.9h4.9c1.7,0,3-1.4,3-3.1v-.2s2.4,0,2.4,0c.8,0,1.6-.3,2.2-.9.6-.6.9-1.3.9-2.2v-12.7c-.1-1.5-1.2-2.8-2.7-3-.1-2.7-.6-6.2-.9-7.9C51.4,9.6,38.8,1.2,25.6,3.6,12.4,5.9,3.5,18,5.7,30.6c.3,1.6,1.1,5.1,1.9,7.7ZM63.1,45.7c.2-.6.6-1,1.1-1.3.3-.2.7-.3,1-.3s.4,0,.6,0l16,4.8c.6.2,1,.6,1.3,1.1s.3,1.1.2,1.7l-8.4,27.8c-.2.6-.6,1-1.1,1.3-.5.3-1.1.3-1.7.2l-16-4.8c-.6-.2-1-.6-1.3-1.1s-.3-1.1-.2-1.7l8.4-27.8ZM12.2,35.6c.1-.3.3-.4.6-.5l4.6-1.7c.1,0,.2,0,.4,0s.3,0,.5.1c.3.1.4.3.5.6l6.4,18c0,.3,0,.6,0,.8s-.3.4-.6.5h0s-4.6,1.7-4.6,1.7c-.3,0-.6,0-.8,0-.3-.1-.4-.3-.5-.6l-.4-1.1s0,0,0,0l-2.8-7.9-3.2-9c0-.3,0-.6,0-.8ZM15.9,53.1l-2.3.8c-.5.2-1.1,0-1.3-.6l-4.2-11.9c-.2-.5,0-1.1.6-1.3l2.3-.8,2.5,7,2.5,7ZM48.7,50h-4.9c-.3,0-.5,0-.7-.3-.2-.2-.3-.5-.3-.7v-19.1c-.1-.6.3-1.1.9-1.1h4.9s0,0,0,0c.3,0,.5.1.7.3.2.2.3.5.3.7v19.1c.1.6-.3,1.1-.9,1.1ZM55.1,33v12.7c0,.3,0,.5-.2.7s-.5.3-.7.3h-2.4s0-.5,0-.5v-14.3c-.1,0,2.3,0,2.3,0,.6,0,1.1.5,1.1,1Z"/>
    </g>
  </g>
</svg>