<?xml version="1.0" encoding="UTF-8"?>
<svg xmlns="http://www.w3.org/2000/svg" version="1.1" viewBox="0 0 1231 1287">
  <defs>
    <style>
      .cls-1 {
        stroke-opacity: .8;
      }

      .cls-1, .cls-2 {
        fill: none;
        stroke: #fff;
        stroke-dasharray: 2 3;
      }

      .cls-2 {
        stroke-opacity: .5;
      }

      .cls-3 {
        fill: #2d2f61;
      }

      .cls-3, .cls-4 {
        opacity: .4;
      }

      .cls-5 {
        fill: #fff;
      }

      .cls-6 {
        opacity: .3;
      }

      .cls-7 {
        opacity: .3;
      }

      .cls-8 {
        opacity: .2;
      }
    </style>
  </defs>
  <!-- Generator: Adobe Illustrator 28.6.0, SVG Export Plug-In . SVG Version: 1.2.0 Build 709)  -->
  <g>
    <g id="Layer_1">
      <path class="cls-3" d="M1123,409.5c62.3,174,117,240.5,106.7,350.5s-28.7,203.8-144.1,251.6-81.6,190.1-290,266.1c-117,42.6-250.2-72.6-366.6-135.8-91-49.3-220-59-301.6-178.6C-58.6,690.6,13.9,539.6,13.9,539.6L532.9,0s527.9,235.5,590.1,409.6Z"/>
      <g class="cls-4">
        <g class="cls-6">
          <circle class="cls-5" cx="1753" cy="-2297.5" r="9.9"/>
        </g>
        <g class="cls-6">
          <circle class="cls-5" cx="473.2" cy="-119.8" r="9.9"/>
        </g>
        <g class="cls-6">
          <circle class="cls-5" cx="1410.7" cy="-323.2" r="9.9"/>
        </g>
        <g class="cls-6">
          <circle class="cls-5" cx="145.8" cy="996.3" r="9.9"/>
        </g>
        <g class="cls-6">
          <circle class="cls-5" cx="274.8" cy="-615.9" r="9.9"/>
        </g>
        <g class="cls-6">
          <circle class="cls-5" cx="423.6" cy="1169.9" r="9.9"/>
        </g>
        <g class="cls-6">
          <circle class="cls-5" cx="205.3" cy="-1111.9" r="9.9"/>
        </g>
        <g class="cls-6">
          <circle class="cls-5" cx="1797.7" cy="1145.1" r="9.9"/>
        </g>
        <g class="cls-6">
          <circle class="cls-5" cx="240" cy="-2163.6" r="9.9"/>
        </g>
        <g class="cls-6">
          <circle class="cls-5" cx="1212.3" cy="-680.4" r="9.9"/>
        </g>
        <g class="cls-6">
          <circle class="cls-5" cx="721.2" cy="604.4" r="9.9"/>
        </g>
        <g class="cls-6">
          <circle class="cls-5" cx="1192.5" cy="1189.8" r="9.9"/>
        </g>
        <g class="cls-6">
          <circle class="cls-5" cx="1390.9" cy="505.2" r="9.9"/>
        </g>
        <g class="cls-6">
          <circle class="cls-5" cx="711.3" cy="-1111.9" r="9.9"/>
        </g>
        <g class="cls-6">
          <circle class="cls-5" cx="1733.2" cy="366.3" r="9.9"/>
        </g>
        <g class="cls-8">
          <path class="cls-2" d="M1232.1-1650.5c221.8,0,221.8,2661.8-1149.7,2661.8"/>
        </g>
        <g class="cls-7">
          <path class="cls-1" d="M1773.1-669.8c155.8,0,155.8,1869.5-671.5,1869.5"/>
        </g>
        <g class="cls-8">
          <path class="cls-1" d="M695.8-2307.4c186,0,186,2231.8-294.7,2231.8"/>
        </g>
      </g>
    </g>
  </g>
</svg>