<?xml version="1.0" encoding="UTF-8"?>
<svg xmlns="http://www.w3.org/2000/svg" version="1.1" viewBox="0 0 1706 1828">
  <defs>
    <style>
      .cls-1 {
        stroke-opacity: .8;
      }

      .cls-1, .cls-2 {
        fill: none;
        stroke: #fff;
        stroke-dasharray: 2 3;
      }

      .cls-2 {
        stroke-opacity: .5;
      }

      .cls-3 {
        fill: #2d2f61;
        fill-rule: evenodd;
        opacity: .4;
      }

      .cls-4 {
        fill: #fff;
      }

      .cls-5 {
        opacity: .3;
      }

      .cls-6 {
        opacity: .3;
      }

      .cls-7 {
        opacity: .2;
      }
    </style>
  </defs>
  <!-- Generator: Adobe Illustrator 28.6.0, SVG Export Plug-In . SVG Version: 1.2.0 Build 709)  -->
  <g>
    <g id="Layer_1">
      <path id="_03" class="cls-3" d="M106.1,656.1C44.1,908-22.7,1008.5,7.5,1160.7s69.2,280.4,237,330.8c167.8,50.4,141.1,253.8,442.7,330,169.3,42.8,338.6-137.1,492-241.9,119.9-81.9,298.5-113.8,395.1-292.5,220.4-407.3,97.6-607.8,97.6-607.8L870.6,0S168,404.2,106.1,656.1Z"/>
      <g>
        <g class="cls-5">
          <circle class="cls-4" cx="1879.1" cy="-503.1" r="9.9"/>
        </g>
        <g class="cls-5">
          <circle class="cls-4" cx="599.3" cy="1674.6" r="9.9"/>
        </g>
        <g class="cls-5">
          <circle class="cls-4" cx="1536.8" cy="1471.2" r="9.9"/>
        </g>
        <g class="cls-5">
          <circle class="cls-4" cx="271.9" cy="2790.7" r="9.9"/>
        </g>
        <g class="cls-5">
          <circle class="cls-4" cx="400.8" cy="1178.5" r="9.9"/>
        </g>
        <g class="cls-5">
          <circle class="cls-4" cx="549.6" cy="2964.3" r="9.9"/>
        </g>
        <g class="cls-5">
          <circle class="cls-4" cx="331.4" cy="682.4" r="9.9"/>
        </g>
        <g class="cls-5">
          <circle class="cls-4" cx="1923.7" cy="2939.5" r="9.9"/>
        </g>
        <g class="cls-5">
          <circle class="cls-4" cx="366.1" cy="-369.2" r="9.9"/>
        </g>
        <g class="cls-5">
          <circle class="cls-4" cx="1338.4" cy="1114" r="9.9"/>
        </g>
        <g class="cls-5">
          <circle class="cls-4" cx="847.3" cy="2398.8" r="9.9"/>
        </g>
        <g class="cls-5">
          <circle class="cls-4" cx="1318.5" cy="2984.2" r="9.9"/>
        </g>
        <g class="cls-5">
          <circle class="cls-4" cx="1517" cy="2299.6" r="9.9"/>
        </g>
        <g class="cls-5">
          <circle class="cls-4" cx="837.4" cy="682.4" r="9.9"/>
        </g>
        <g class="cls-5">
          <circle class="cls-4" cx="1859.2" cy="2160.7" r="9.9"/>
        </g>
        <g class="cls-7">
          <path class="cls-2" d="M1358.1,143.9c221.8,0,221.8,2661.8-1149.7,2661.8"/>
        </g>
        <g class="cls-6">
          <path class="cls-1" d="M1899.2,1124.6c155.8,0,155.8,1869.5-671.5,1869.5"/>
        </g>
        <g class="cls-7">
          <path class="cls-1" d="M821.9-513.1c186,0,186,2231.8-294.7,2231.8"/>
        </g>
      </g>
    </g>
  </g>
</svg>