<?xml version="1.0" encoding="UTF-8"?>
<svg xmlns="http://www.w3.org/2000/svg" version="1.1" viewBox="0 0 1390.8 1359.3">
  <defs>
    <style>
      .cls-1 {
        stroke-opacity: .8;
      }

      .cls-1, .cls-2 {
        fill: none;
        stroke: #fff;
        stroke-dasharray: 2 3;
      }

      .cls-2 {
        stroke-opacity: .5;
      }

      .cls-3 {
        fill: #2d2f61;
        fill-rule: evenodd;
        opacity: .4;
      }

      .cls-4 {
        fill: #fff;
      }

      .cls-5 {
        opacity: .3;
      }

      .cls-6 {
        opacity: .3;
      }

      .cls-7 {
        opacity: .2;
      }
    </style>
  </defs>
  <!-- Generator: Adobe Illustrator 28.6.0, SVG Export Plug-In . SVG Version: 1.2.0 Build 709)  -->
  <g>
    <g id="Layer_1">
      <path id="_01" class="cls-3" d="M995.4,1211.1c-184.9,83.8-252.7,149.7-374.1,148.3s-225.6-13.1-288.4-135.1S117.4,1152,15.6,930.7c-57.2-124.2,57-280.4,115.7-413.5,45.8-104.1,44.8-246.1,168.4-346.1C581.5-57,753.4,8.8,753.4,8.8l637.4,519.5s-210.4,598.9-395.3,682.7Z"/>
      <g>
        <g class="cls-5">
          <circle class="cls-4" cx="1730.9" cy="-1190.8" r="9.9"/>
        </g>
        <g class="cls-5">
          <circle class="cls-4" cx="451.1" cy="986.9" r="9.9"/>
        </g>
        <g class="cls-5">
          <circle class="cls-4" cx="1388.6" cy="783.5" r="9.9"/>
        </g>
        <g class="cls-5">
          <circle class="cls-4" cx="123.7" cy="2103.1" r="9.9"/>
        </g>
        <g class="cls-5">
          <circle class="cls-4" cx="252.7" cy="490.9" r="9.9"/>
        </g>
        <g class="cls-5">
          <circle class="cls-4" cx="401.5" cy="2276.7" r="9.9"/>
        </g>
        <g class="cls-5">
          <circle class="cls-4" cx="183.2" cy="-5.2" r="9.9"/>
        </g>
        <g class="cls-5">
          <circle class="cls-4" cx="1775.6" cy="2251.9" r="9.9"/>
        </g>
        <g class="cls-5">
          <circle class="cls-4" cx="217.9" cy="-1056.8" r="9.9"/>
        </g>
        <g class="cls-5">
          <circle class="cls-4" cx="1190.2" cy="426.4" r="9.9"/>
        </g>
        <g class="cls-5">
          <circle class="cls-4" cx="699.1" cy="1711.2" r="9.9"/>
        </g>
        <g class="cls-5">
          <circle class="cls-4" cx="1170.4" cy="2296.5" r="9.9"/>
        </g>
        <g class="cls-5">
          <circle class="cls-4" cx="1368.8" cy="1612" r="9.9"/>
        </g>
        <g class="cls-5">
          <circle class="cls-4" cx="689.2" cy="-5.2" r="9.9"/>
        </g>
        <g class="cls-5">
          <circle class="cls-4" cx="1711.1" cy="1473.1" r="9.9"/>
        </g>
        <g class="cls-7">
          <path class="cls-2" d="M1210-543.7c221.8,0,221.8,2661.8-1149.7,2661.8"/>
        </g>
        <g class="cls-6">
          <path class="cls-1" d="M1751,436.9c155.8,0,155.8,1869.5-671.5,1869.5"/>
        </g>
        <g class="cls-7">
          <path class="cls-1" d="M673.8-1200.7c186,0,186,2231.8-294.7,2231.8"/>
        </g>
      </g>
    </g>
  </g>
</svg>